<svg width="146" height="46" viewBox="0 0 146 46" fill="none" xmlns="http://www.w3.org/2000/svg">
<path d="M25.36 10.92H16.88V36H9.08V10.92H0.6V4.6H25.36V10.92ZM34.1834 12.04V15.48C35.1168 14.2 36.2368 13.2133 37.5434 12.52C38.8501 11.8 40.2768 11.44 41.8234 11.44C42.3834 11.44 42.9301 11.48 43.4634 11.56C43.9968 11.64 44.4101 11.7467 44.7034 11.88L43.7034 19.8C42.6901 19.4533 41.6234 19.28 40.5034 19.28C38.6101 19.28 37.0768 19.7467 35.9034 20.68C34.7568 21.5867 34.1834 22.96 34.1834 24.8V36H26.4234V12.04H34.1834ZM57.1647 36H49.1647V15.72H57.1647V36ZM52.2447 1.08C52.4047 1.26666 52.5647 1.52 52.7247 1.84C52.9114 2.16 53.0447 2.44 53.1247 2.68C53.2047 2.41333 53.338 2.12 53.5247 1.8C53.7114 1.45333 53.8714 1.21333 54.0047 1.08C54.378 0.733332 54.818 0.559999 55.3247 0.559999C55.8047 0.559999 56.218 0.719999 56.5647 1.04C56.9114 1.38666 57.0847 1.82666 57.0847 2.36C57.0847 2.6 57.0447 2.82667 56.9647 3.04C57.178 2.96 57.4047 2.92 57.6447 2.92C58.178 2.92 58.618 3.09333 58.9647 3.44C59.2847 3.78666 59.4447 4.18666 59.4447 4.64C59.4447 5.14666 59.2714 5.58666 58.9247 5.96C58.658 6.22666 58.4314 6.42666 58.2447 6.56C58.0847 6.69333 57.8447 6.8 57.5247 6.88C57.8447 6.98667 58.098 7.10667 58.2847 7.24C58.4714 7.37333 58.6847 7.56 58.9247 7.8C59.2714 8.14667 59.4447 8.57333 59.4447 9.08C59.4447 9.53333 59.2847 9.94667 58.9647 10.32C58.5647 10.6667 58.138 10.84 57.6847 10.84C57.5247 10.84 57.2847 10.7867 56.9647 10.68C57.0447 10.92 57.0847 11.1467 57.0847 11.36C57.0847 11.8933 56.9114 12.3333 56.5647 12.68C56.2447 13 55.8314 13.16 55.3247 13.16C54.7914 13.16 54.3514 12.9867 54.0047 12.64C53.5514 12.1067 53.258 11.5867 53.1247 11.08C52.9647 11.64 52.698 12.1333 52.3247 12.56C51.9514 12.96 51.498 13.16 50.9647 13.16C50.5114 13.16 50.098 13 49.7247 12.68C49.3514 12.3067 49.1647 11.88 49.1647 11.4C49.1647 11.24 49.218 11 49.3247 10.68C49.0047 10.7867 48.7647 10.84 48.6047 10.84C48.098 10.84 47.6714 10.6667 47.3247 10.32C47.0047 9.94667 46.8447 9.53333 46.8447 9.08C46.8447 8.57333 47.018 8.14667 47.3647 7.8C47.6314 7.53333 47.858 7.33333 48.0447 7.2C48.2314 7.06667 48.4847 6.96 48.8047 6.88C48.4847 6.77333 48.218 6.65333 48.0047 6.52C47.818 6.38666 47.6047 6.2 47.3647 5.96C47.018 5.58666 46.8447 5.14666 46.8447 4.64C46.8447 4.18666 47.0047 3.78666 47.3247 3.44C47.6714 3.09333 48.1114 2.92 48.6447 2.92C48.9114 2.92 49.138 2.96 49.3247 3.04C49.218 2.72 49.1647 2.48 49.1647 2.32C49.1647 1.84 49.3514 1.41333 49.7247 1.04C50.098 0.719999 50.498 0.559999 50.9247 0.559999C51.4047 0.559999 51.8447 0.733332 52.2447 1.08ZM72.3216 14.72C73.1482 13.6533 74.2149 12.88 75.5216 12.4C76.8549 11.8933 78.2549 11.64 79.7216 11.64C83.1349 11.64 85.7749 12.7467 87.6416 14.96C89.5349 17.1733 90.4816 20.1467 90.4816 23.88C90.4816 26.44 90.0016 28.6533 89.0416 30.52C88.1082 32.3867 86.8282 33.8267 85.2016 34.84C83.5749 35.8267 81.7349 36.32 79.6816 36.32C78.5349 36.32 77.3349 36.1733 76.0816 35.88C74.8549 35.5867 73.8816 35.16 73.1616 34.6L74.7616 28.84C75.1082 29.1067 75.6149 29.3467 76.2816 29.56C76.9482 29.7467 77.5482 29.84 78.0816 29.84H78.2016C79.7482 29.7867 80.8949 29.24 81.6416 28.2C82.3882 27.1333 82.7616 25.7333 82.7616 24C82.7616 22.2133 82.3349 20.7733 81.4816 19.68C80.6282 18.56 79.3616 18 77.6816 18C76.2416 18 75.0282 18.5067 74.0416 19.52C73.0549 20.5067 72.4816 21.7333 72.3216 23.2V45.96H64.6016V12.08H72.3216V14.72ZM107.792 36.2C105.152 36.2 102.859 35.6667 100.912 34.6C98.9655 33.5067 97.4722 31.9867 96.4322 30.04C95.4189 28.0933 94.9122 25.84 94.9122 23.28V4.6H102.672V23.72C102.672 25.6933 103.126 27.1733 104.032 28.16C104.939 29.12 106.192 29.6 107.792 29.6C109.392 29.6 110.646 29.12 111.552 28.16C112.459 27.1733 112.912 25.6933 112.912 23.72V4.6H120.672V23.28C120.672 25.84 120.152 28.0933 119.112 30.04C118.099 31.9867 116.619 33.5067 114.672 34.6C112.726 35.6667 110.432 36.2 107.792 36.2ZM143.474 19.08C142.567 18.68 141.367 18.3467 139.874 18.08C138.407 17.8133 137.114 17.68 135.994 17.68C134.074 17.68 133.114 18.1733 133.114 19.16C133.114 19.5867 133.26 19.9067 133.554 20.12C133.874 20.3067 134.38 20.48 135.074 20.64C137.82 21.2267 139.874 21.8 141.234 22.36C142.514 22.8933 143.5 23.6933 144.194 24.76C144.887 25.8 145.234 27.04 145.234 28.48C145.234 29.2267 145.14 29.9733 144.954 30.72C144.047 34.4 140.927 36.24 135.594 36.24C131.46 36.24 127.674 35.48 124.234 33.96L125.674 27.56C126.527 28.12 127.94 28.6133 129.914 29.04C131.914 29.4667 133.554 29.68 134.834 29.68C136.514 29.68 137.407 29.3067 137.514 28.56C137.594 28.0533 137.46 27.6667 137.114 27.4C136.767 27.1067 136.194 26.84 135.394 26.6C134.327 26.3067 133.647 26.1333 133.354 26.08C131.487 25.6267 130.194 25.2533 129.474 24.96C126.62 23.7867 125.26 21.5867 125.394 18.36C125.474 15.7733 126.514 13.96 128.514 12.92C130.514 11.88 132.94 11.36 135.794 11.36C137.394 11.36 138.98 11.5067 140.554 11.8C142.154 12.0933 143.554 12.52 144.754 13.08L143.474 19.08Z" fill="#06B796"/>
</svg>
